<svg version="1.1" viewBox="0.0 0.0 960.0 720.0" fill="none" stroke="none" stroke-linecap="square" stroke-miterlimit="10" xmlns:xlink="http://www.w3.org/1999/xlink" xmlns="http://www.w3.org/2000/svg"><clipPath id="p.0"><path d="m0 0l960.0 0l0 720.0l-960.0 0l0 -720.0z" clip-rule="nonzero"/></clipPath><g clip-path="url(#p.0)"><path fill="#000000" fill-opacity="0.0" d="m0 0l960.0 0l0 720.0l-960.0 0z" fill-rule="evenodd"/><path fill="#ffffff" d="m352.51968 330.66666l0 0c0 -70.405426 57.07489 -127.4803 127.480316 -127.4803l0 0c33.809875 0 66.234985 13.430923 90.14221 37.33812c23.907166 23.907196 37.338074 56.332306 37.338074 90.14218l0 0c0 70.40546 -57.07483 127.480316 -127.480286 127.480316l0 0c-70.405426 0 -127.480316 -57.07486 -127.480316 -127.480316zm63.740173 0l0 0c0 35.20273 28.537415 63.740173 63.740143 63.740173c35.202698 0 63.740173 -28.537445 63.740173 -63.740173c0 -35.202698 -28.537476 -63.740143 -63.740173 -63.740143l0 0c-35.20273 0 -63.740143 28.537445 -63.740143 63.740143z" fill-rule="evenodd"/><path stroke="#000000" stroke-width="1.0" stroke-linejoin="round" stroke-linecap="butt" d="m352.51968 330.66666l0 0c0 -70.405426 57.07489 -127.4803 127.480316 -127.4803l0 0c33.809875 0 66.234985 13.430923 90.14221 37.33812c23.907166 23.907196 37.338074 56.332306 37.338074 90.14218l0 0c0 70.40546 -57.07483 127.480316 -127.480286 127.480316l0 0c-70.405426 0 -127.480316 -57.07486 -127.480316 -127.480316zm63.740173 0l0 0c0 35.20273 28.537415 63.740173 63.740143 63.740173c35.202698 0 63.740173 -28.537445 63.740173 -63.740173c0 -35.202698 -28.537476 -63.740143 -63.740173 -63.740143l0 0c-35.20273 0 -63.740143 28.537445 -63.740143 63.740143z" fill-rule="evenodd"/><path fill="#ffffff" d="m580.6115 494.00787l-134.20471 -134.20471l62.45099 0.22799683l69.35828 69.35831l68.8537 -68.8537l66.77014 0.24377441z" fill-rule="evenodd"/><path stroke="#000000" stroke-width="1.0" stroke-linejoin="round" stroke-linecap="butt" d="m580.6115 494.00787l-134.20471 -134.20471l62.45099 0.22799683l69.35828 69.35831l68.8537 -68.8537l66.77014 0.24377441z" fill-rule="evenodd"/></g></svg>